<svg width="24" height="24" viewBox="0 0 24 24" fill="none" xmlns="http://www.w3.org/2000/svg">
<g clip-path="url(#clip0_1_4438)">
<path d="M12 22.7012C17.9101 22.7012 22.7012 17.9101 22.7012 12C22.7012 6.08991 17.9101 1.29881 12 1.29881C6.08989 1.29881 1.2988 6.08991 1.2988 12C1.2988 17.9101 6.08989 22.7012 12 22.7012Z" fill="white"/>
<path d="M12 0C9.6266 0 7.30652 0.703788 5.33313 2.02236C3.35974 3.34094 1.82167 5.21509 0.91342 7.4078C0.00516885 9.60051 -0.232471 12.0133 0.230552 14.3411C0.693574 16.6689 1.83646 18.8071 3.51469 20.4853C5.19292 22.1635 7.33112 23.3064 9.65889 23.7694C11.9867 24.2324 14.3995 23.9948 16.5922 23.0866C18.7849 22.1783 20.659 20.6402 21.9776 18.6668C23.2962 16.6935 24 14.3734 24 12C24.0046 10.4287 23.6996 8.87191 23.1025 7.41848C22.5055 5.96505 21.628 4.64345 20.5201 3.52915C19.4123 2.41484 18.0958 1.52965 16.6459 0.924121C15.196 0.318589 13.641 0.00457211 12.0697 0H12ZM12.2034 12.4068L10.954 16.6199H17.6368C17.681 16.6183 17.7252 16.6255 17.7667 16.641C17.8082 16.6565 17.8462 16.6801 17.8786 16.7103C17.9109 16.7405 17.9371 16.7768 17.9554 16.8171C17.9737 16.8575 17.9839 16.901 17.9854 16.9453V17.0557L17.4043 19.0605C17.3787 19.1553 17.3216 19.2386 17.2424 19.2967C17.1632 19.3548 17.0666 19.3842 16.9685 19.3801H6.74089L8.45518 13.54L6.5375 14.1211L6.97334 12.7845L8.89102 12.2034L11.3026 4.00969C11.3292 3.91541 11.3865 3.83272 11.4655 3.7748C11.5445 3.71688 11.6406 3.68705 11.7385 3.69007H14.3244C14.3687 3.68852 14.4128 3.69571 14.4543 3.71123C14.4958 3.72674 14.5338 3.75029 14.5662 3.78051C14.5986 3.81074 14.6247 3.84705 14.643 3.88737C14.6614 3.92769 14.6716 3.97123 14.6731 4.0155V4.12591L12.6392 11.0412L14.5569 10.46L14.1501 11.8547L12.2034 12.4068Z" fill="#345D9D"/>
</g>
<defs>
<clipPath id="clip0_1_4438">
<rect width="24" height="24" fill="white"/>
</clipPath>
</defs>
</svg>
