<svg width="96" height="96" viewBox="0 0 96 96" fill="none" xmlns="http://www.w3.org/2000/svg">
<path d="M96 48C96 74.5104 74.5104 96 48 96C21.4906 96 0 74.5104 0 48C0 21.4901 21.4906 0 48 0C74.5104 0 96 21.4901 96 48Z" fill="url(#paint0_linear_6565_149)"/>
<path d="M96 48C96 74.5104 74.5104 96 48 96C21.4906 96 0 74.5104 0 48C0 21.4901 21.4906 0 48 0C74.5104 0 96 21.4901 96 48Z" fill="url(#paint1_linear_6565_149)"/>
<path d="M46.9663 73.0909V22.1818H50.2276V73.0909H46.9663ZM57.168 37.9716C56.9558 36.089 56.0808 34.6307 54.543 33.5966C53.0051 32.5492 51.0695 32.0256 48.7362 32.0256C47.0657 32.0256 45.6206 32.2907 44.4009 32.821C43.1812 33.3381 42.2333 34.054 41.5572 34.9688C40.8943 35.8703 40.5629 36.8977 40.5629 38.0511C40.5629 39.0189 40.7882 39.8542 41.239 40.5568C41.703 41.2595 42.3062 41.8494 43.0487 42.3267C43.8043 42.7907 44.613 43.1818 45.4748 43.5C46.3365 43.8049 47.1651 44.0568 47.9606 44.2557L51.9379 45.2898C53.2371 45.608 54.5695 46.0388 55.935 46.5824C57.3005 47.1259 58.5666 47.8419 59.7333 48.7301C60.9 49.6184 61.8413 50.7188 62.5572 52.0312C63.2863 53.3438 63.6509 54.9148 63.6509 56.7443C63.6509 59.0511 63.0543 61.0994 61.8612 62.8892C60.6812 64.679 58.9644 66.0909 56.7106 67.125C54.4701 68.1591 51.7589 68.6761 48.5771 68.6761C45.5278 68.6761 42.8896 68.1922 40.6623 67.2244C38.435 66.2566 36.6916 64.8845 35.4322 63.108C34.1727 61.3182 33.4767 59.197 33.3441 56.7443H39.5089C39.6282 58.2159 40.1055 59.4422 40.9407 60.4233C41.7892 61.3911 42.8697 62.1136 44.1822 62.5909C45.5079 63.0549 46.9596 63.2869 48.5373 63.2869C50.274 63.2869 51.8185 63.0152 53.1708 62.4716C54.5363 61.9148 55.6102 61.1458 56.3924 60.1648C57.1746 59.1705 57.5657 58.0104 57.5657 56.6847C57.5657 55.4782 57.221 54.4905 56.5316 53.7216C55.8555 52.9527 54.9341 52.3163 53.7674 51.8125C52.614 51.3087 51.3081 50.8646 49.8498 50.4801L45.0373 49.1676C41.7759 48.2794 39.1907 46.9735 37.2816 45.25C35.3858 43.5265 34.4379 41.2462 34.4379 38.4091C34.4379 36.0625 35.0742 34.0142 36.3469 32.2642C37.6197 30.5142 39.3432 29.1553 41.5174 28.1875C43.6916 27.2064 46.1443 26.7159 48.8754 26.7159C51.6329 26.7159 54.0657 27.1998 56.1737 28.1676C58.2949 29.1354 59.9653 30.4678 61.185 32.1648C62.4047 33.8485 63.0411 35.7841 63.0941 37.9716H57.168Z" fill="white"/>
<defs>
<linearGradient id="paint0_linear_6565_149" x1="15.5" y1="81" x2="167.5" y2="-65" gradientUnits="userSpaceOnUse">
<stop/>
<stop offset="1" stop-color="#434343"/>
</linearGradient>
<linearGradient id="paint1_linear_6565_149" x1="74.24" y1="2.07337e-06" x2="10.5235" y2="77.084" gradientUnits="userSpaceOnUse">
<stop stop-color="#010417"/>
<stop offset="1" stop-color="#2B333F"/>
</linearGradient>
</defs>
</svg>
