<svg width="113" height="104" viewBox="0 0 113 104" fill="none" xmlns="http://www.w3.org/2000/svg">
<g filter="url(#filter0_dd_1326_223)">
<rect x="8.80002" width="96" height="96" rx="48" fill="url(#paint0_linear_1326_223)"/>
<path d="M24.0869 61.1305C23.757 61.139 23.4288 61.0818 23.1212 60.9622C22.8137 60.8426 22.533 60.663 22.2955 60.4339C22.0601 60.2128 21.8725 59.9459 21.7443 59.6496C21.6161 59.3532 21.5499 59.0337 21.5499 58.7108C21.5499 58.388 21.6161 58.0685 21.7443 57.7721C21.8725 57.4758 22.0601 57.2089 22.2955 56.9878C22.5309 56.7542 22.8107 56.57 23.1183 56.4461C23.426 56.3222 23.7553 56.2611 24.0869 56.2663C24.4206 56.2594 24.7523 56.3197 25.0622 56.4437C25.3721 56.5677 25.6539 56.7527 25.8908 56.9878C26.1295 57.2069 26.3201 57.4732 26.4504 57.7698C26.5808 58.0664 26.6481 58.3869 26.6481 58.7108C26.6481 59.0348 26.5808 59.3553 26.4504 59.6519C26.3201 59.9485 26.1295 60.2148 25.8908 60.4339C25.6519 60.6645 25.3691 60.845 25.0593 60.9646C24.7495 61.0843 24.4189 61.1407 24.0869 61.1305ZM52.2152 60.7324H47.637L35.5945 41.7232C35.2926 41.252 35.0384 40.7519 34.8356 40.2303H34.7237C34.8556 41.4073 34.9054 42.592 34.8729 43.7759V60.7324H30.8173V34.8684H35.694L47.4006 53.4298C47.8983 54.2011 48.2093 54.6739 48.3586 55.0222H48.4208C48.28 53.8667 48.2218 52.7026 48.2466 51.5388V34.8684H52.2774L52.2152 60.7324ZM71.9211 60.7324H57.7637V34.8684H71.3613V38.5135H61.9437V45.841H70.6521V49.4612H61.9437V57.1122H71.8962L71.9211 60.7324ZM92.05 38.5135H84.7971V60.7324H80.6046V38.5135H73.3766V34.8684H92.0376L92.05 38.5135Z" fill="white"/>
</g>
<defs>
<filter id="filter0_dd_1326_223" x="0.800018" y="-8" width="112" height="112" filterUnits="userSpaceOnUse" color-interpolation-filters="sRGB">
<feFlood flood-opacity="0" result="BackgroundImageFix"/>
<feColorMatrix in="SourceAlpha" type="matrix" values="0 0 0 0 0 0 0 0 0 0 0 0 0 0 0 0 0 0 127 0" result="hardAlpha"/>
<feOffset/>
<feGaussianBlur stdDeviation="4"/>
<feComposite in2="hardAlpha" operator="out"/>
<feColorMatrix type="matrix" values="0 0 0 0 0.715625 0 0 0 0 0.728516 0 0 0 0 0.75 0 0 0 0.04 0"/>
<feBlend mode="normal" in2="BackgroundImageFix" result="effect1_dropShadow_1326_223"/>
<feColorMatrix in="SourceAlpha" type="matrix" values="0 0 0 0 0 0 0 0 0 0 0 0 0 0 0 0 0 0 127 0" result="hardAlpha"/>
<feOffset dy="2"/>
<feGaussianBlur stdDeviation="1.5"/>
<feComposite in2="hardAlpha" operator="out"/>
<feColorMatrix type="matrix" values="0 0 0 0 0 0 0 0 0 0 0 0 0 0 0 0 0 0 0.02 0"/>
<feBlend mode="normal" in2="effect1_dropShadow_1326_223" result="effect2_dropShadow_1326_223"/>
<feBlend mode="normal" in="SourceGraphic" in2="effect2_dropShadow_1326_223" result="shape"/>
</filter>
<linearGradient id="paint0_linear_1326_223" x1="20.9997" y1="3" x2="81.4997" y2="96" gradientUnits="userSpaceOnUse">
<stop stop-color="#6B3FA0"/>
<stop offset="1" stop-color="#552D85"/>
</linearGradient>
</defs>
</svg>
