<svg width="113" height="112" viewBox="0 0 113 112" fill="none" xmlns="http://www.w3.org/2000/svg">
<g filter="url(#filter0_dd_955_4333)">
<rect x="8.42859" y="8" width="96" height="96" rx="48" fill="url(#paint0_linear_955_4333)"/>
<path d="M72.8176 34.7903H40.0375C34.0104 34.7903 30.1905 41.2917 33.2226 46.5475L53.4532 81.6129C54.7733 83.9025 58.0817 83.9025 59.4019 81.6129L79.6367 46.5475C82.6648 41.3001 78.8447 34.7903 72.8217 34.7903H72.8176ZM53.4367 71.0973L49.0308 62.5703L38.3999 43.5566C37.6986 42.3397 38.5648 40.7802 40.0334 40.7802H53.4326V71.1014L53.4367 71.0973ZM74.447 43.5525L63.8201 62.5744L59.4143 71.0973V40.7761H72.8135C74.2821 40.7761 75.1483 42.3355 74.447 43.5525Z" fill="white"/>
</g>
<defs>
<filter id="filter0_dd_955_4333" x="0.428589" y="0" width="112" height="112" filterUnits="userSpaceOnUse" color-interpolation-filters="sRGB">
<feFlood flood-opacity="0" result="BackgroundImageFix"/>
<feColorMatrix in="SourceAlpha" type="matrix" values="0 0 0 0 0 0 0 0 0 0 0 0 0 0 0 0 0 0 127 0" result="hardAlpha"/>
<feOffset/>
<feGaussianBlur stdDeviation="4"/>
<feComposite in2="hardAlpha" operator="out"/>
<feColorMatrix type="matrix" values="0 0 0 0 0.715625 0 0 0 0 0.728516 0 0 0 0 0.75 0 0 0 0.04 0"/>
<feBlend mode="normal" in2="BackgroundImageFix" result="effect1_dropShadow_955_4333"/>
<feColorMatrix in="SourceAlpha" type="matrix" values="0 0 0 0 0 0 0 0 0 0 0 0 0 0 0 0 0 0 127 0" result="hardAlpha"/>
<feOffset dy="2"/>
<feGaussianBlur stdDeviation="1.5"/>
<feComposite in2="hardAlpha" operator="out"/>
<feColorMatrix type="matrix" values="0 0 0 0 0 0 0 0 0 0 0 0 0 0 0 0 0 0 0.02 0"/>
<feBlend mode="normal" in2="effect1_dropShadow_955_4333" result="effect2_dropShadow_955_4333"/>
<feBlend mode="normal" in="SourceGraphic" in2="effect2_dropShadow_955_4333" result="shape"/>
</filter>
<linearGradient id="paint0_linear_955_4333" x1="97.8831" y1="0.58182" x2="22.3922" y2="125.382" gradientUnits="userSpaceOnUse">
<stop stop-color="#04BEFE"/>
<stop offset="1" stop-color="#4481EB"/>
</linearGradient>
</defs>
</svg>
