<svg width="96" height="96" viewBox="0 0 96 96" fill="none" xmlns="http://www.w3.org/2000/svg">
<g clip-path="url(#clip0_6563_91)">
<path d="M95.839 48.1113C95.839 74.4898 74.4559 95.8725 48.0778 95.8725C21.6993 95.8725 0.31665 74.4898 0.31665 48.1113C0.31665 21.7333 21.6993 0.350098 48.0778 0.350098C74.4559 0.350098 95.839 21.7333 95.839 48.1113Z" fill="url(#paint0_linear_6563_91)"/>
<path d="M64.8176 26.7903H32.0375C26.0104 26.7903 22.1905 33.2917 25.2226 38.5475L45.4532 73.6129C46.7733 75.9025 50.0817 75.9025 51.4019 73.6129L71.6367 38.5475C74.6648 33.3001 70.8447 26.7903 64.8217 26.7903H64.8176ZM45.4367 63.0973L41.0308 54.5703L30.3999 35.5566C29.6986 34.3397 30.5648 32.7802 32.0334 32.7802H45.4326V63.1014L45.4367 63.0973ZM66.447 35.5525L55.8201 54.5744L51.4143 63.0973V32.7761H64.8135C66.2821 32.7761 67.1483 34.3355 66.447 35.5525Z" fill="white"/>
</g>
<defs>
<linearGradient id="paint0_linear_6563_91" x1="89.3262" y1="-7.03118" x2="14.2108" y2="117.148" gradientUnits="userSpaceOnUse">
<stop stop-color="#04BEFE"/>
<stop offset="1" stop-color="#4481EB"/>
</linearGradient>
<clipPath id="clip0_6563_91">
<rect width="96" height="96" fill="white"/>
</clipPath>
</defs>
</svg>
