<svg width="113" height="104" viewBox="0 0 113 104" fill="none" xmlns="http://www.w3.org/2000/svg">
<g filter="url(#filter0_dd_1326_219)">
<rect x="8.60001" width="96" height="96" rx="48" fill="url(#paint0_linear_1326_219)"/>
<path d="M87.0819 26.9588L59.5213 10.9556C57.7831 9.96563 55.52 9.96563 53.7681 10.9556L25.9131 26.9588C24.1194 27.9906 22.85 29.93 22.85 32.0044V63.9681C22.85 66.0425 24.1525 67.9825 25.9463 69.02L33.3056 73.2C36.8231 74.9325 38.0663 74.9325 39.6669 74.9325C44.875 74.9325 47.85 71.7831 47.85 66.29V34.7338C47.85 34.2881 47.6181 33.625 47.1806 33.625H43.6663C43.2213 33.625 42.225 34.2881 42.225 34.7331V66.2894C42.225 68.7244 40.0225 71.1475 35.9063 69.0894L28.3019 64.7063C28.0369 64.5625 27.85 64.2731 27.85 63.9681V32.0044C27.85 31.7031 28.1969 31.4006 28.4638 31.2463L56.2288 15.2706C56.4881 15.1238 56.8694 15.1238 57.1281 15.2706L84.5544 31.2425C84.8169 31.4006 84.7244 31.6938 84.7244 32.0044V63.9681C84.7244 64.2731 84.8388 64.57 84.5794 64.7169L57.0256 80.7019C56.7894 80.8438 56.4963 80.8438 56.2375 80.7019L49.1706 76.4838C48.9575 76.36 48.7044 76.3156 48.5 76.43C46.5338 77.5444 46.1713 77.6925 44.3269 78.3319C43.8731 78.49 43.2038 78.7644 44.5831 79.5375L53.8319 85.0088C54.7149 85.5188 55.7166 85.7873 56.7363 85.7875C57.7625 85.7875 58.7675 85.5213 59.6531 85.0088L87.0813 69.02C88.875 67.975 89.725 66.0425 89.725 63.9681V32.0044C89.725 29.93 88.875 27.9956 87.0819 26.9588V26.9588ZM65.2938 58.9031C57.965 58.9031 56.3506 56.8813 55.8125 53.2369C55.75 52.8444 55.4169 52.375 55.0175 52.375H51.4356C50.9925 52.375 50.6363 52.9125 50.6363 53.3538C50.6363 58.02 53.1731 63.6738 65.2944 63.6738C74.0688 63.6738 79.0994 60.2644 79.0994 54.2306C79.0994 48.2481 75.0575 46.6781 66.5481 45.5519C57.9469 44.415 57.0731 43.8406 57.0731 41.8256C57.0731 40.1644 57.8131 37.9488 64.1819 37.9488C69.8725 37.9488 71.97 39.17 72.8331 43.0056C72.9069 43.3663 73.2363 43.625 73.6081 43.625H77.2044C77.4256 43.625 77.6369 43.5356 77.7919 43.3775C77.9419 43.2075 78.0213 42.9944 78.0013 42.7656C77.4444 36.1606 73.0563 33.0825 64.1813 33.0825C56.2869 33.0825 51.5775 36.4163 51.5775 42.0044C51.5775 48.0656 56.2631 49.7406 63.8413 50.49C72.9069 51.3788 73.6119 52.7038 73.6119 54.4869C73.6119 57.5838 71.1256 58.9031 65.2938 58.9031Z" fill="white"/>
</g>
<defs>
<filter id="filter0_dd_1326_219" x="0.600006" y="-8" width="112" height="112" filterUnits="userSpaceOnUse" color-interpolation-filters="sRGB">
<feFlood flood-opacity="0" result="BackgroundImageFix"/>
<feColorMatrix in="SourceAlpha" type="matrix" values="0 0 0 0 0 0 0 0 0 0 0 0 0 0 0 0 0 0 127 0" result="hardAlpha"/>
<feOffset/>
<feGaussianBlur stdDeviation="4"/>
<feComposite in2="hardAlpha" operator="out"/>
<feColorMatrix type="matrix" values="0 0 0 0 0.715625 0 0 0 0 0.728516 0 0 0 0 0.75 0 0 0 0.04 0"/>
<feBlend mode="normal" in2="BackgroundImageFix" result="effect1_dropShadow_1326_219"/>
<feColorMatrix in="SourceAlpha" type="matrix" values="0 0 0 0 0 0 0 0 0 0 0 0 0 0 0 0 0 0 127 0" result="hardAlpha"/>
<feOffset dy="2"/>
<feGaussianBlur stdDeviation="1.5"/>
<feComposite in2="hardAlpha" operator="out"/>
<feColorMatrix type="matrix" values="0 0 0 0 0 0 0 0 0 0 0 0 0 0 0 0 0 0 0.02 0"/>
<feBlend mode="normal" in2="effect1_dropShadow_1326_219" result="effect2_dropShadow_1326_219"/>
<feBlend mode="normal" in="SourceGraphic" in2="effect2_dropShadow_1326_219" result="shape"/>
</filter>
<linearGradient id="paint0_linear_1326_219" x1="8.99991" y1="4" x2="96.9999" y2="102.5" gradientUnits="userSpaceOnUse">
<stop stop-color="#83CD29"/>
<stop offset="1" stop-color="#74BE1A"/>
</linearGradient>
</defs>
</svg>
