<svg width="96" height="96" viewBox="0 0 96 96" fill="none" xmlns="http://www.w3.org/2000/svg">
<path d="M96 48C96 74.5104 74.5104 96 48 96C21.4906 96 0 74.5104 0 48C0 21.4901 21.4906 0 48 0C74.5104 0 96 21.4901 96 48Z" fill="url(#paint0_linear_6565_111)"/>
<path d="M70.5279 24.2043H25.0767V35.1771H42.3159V51.3051H53.2887V35.1771H70.5279V24.2043Z" fill="white"/>
<path d="M47.9064 53.023C33.6456 53.023 22.0838 50.766 22.0838 47.9816C22.0838 45.1976 33.6451 42.9401 47.9064 42.9401C62.1672 42.9401 73.7285 45.1976 73.7285 47.9816C73.7285 50.766 62.1672 53.023 47.9064 53.023ZM76.9008 48.8221C76.9008 45.2317 63.9197 42.3214 47.9064 42.3214C31.8936 42.3214 18.9115 45.2317 18.9115 48.8221C18.9115 51.9838 28.9776 54.618 42.3163 55.2017V78.3541H53.2882V55.2108C66.7296 54.6454 76.9008 52.0001 76.9008 48.8221Z" fill="white"/>
<defs>
<linearGradient id="paint0_linear_6565_111" x1="9.16364" y1="131.782" x2="56.7273" y2="30.5455" gradientUnits="userSpaceOnUse">
<stop stop-color="#8DDAD5"/>
<stop offset="1" stop-color="#1BA27A"/>
</linearGradient>
</defs>
</svg>
