<svg width="112" height="104" viewBox="0 0 112 104" fill="none" xmlns="http://www.w3.org/2000/svg">
<g filter="url(#filter0_dd_1326_227)">
<rect x="8" width="96" height="96" rx="48" fill="url(#paint0_linear_1326_227)"/>
<path d="M43.5101 52.7392C42.3646 53.8108 41.0926 54.2532 39.6917 54.7089C38.2909 55.1653 36.5082 55.0711 34.3405 55.0711H29.4277L28.0661 62.9278H22.3299L27.4486 36.2149H38.4794C41.7981 36.2149 44.2188 37.1695 45.7406 38.9113C47.2625 40.6531 47.7198 43.1257 47.1132 46.2471C46.8626 47.5333 46.4407 48.7291 45.8451 49.7945C45.228 50.8937 44.4398 51.8877 43.5101 52.7392ZM60.2536 55.0711L62.5171 43.7416C62.7748 42.4154 62.6806 41.4302 62.2335 40.9486C61.7857 40.4662 60.8335 40.1432 59.3776 40.1432H54.8285L51.8972 55.0711H46.2058L51.3244 29.1438H57.0159L55.6551 36.2149H60.725C63.9156 36.2149 66.1155 36.8552 67.3263 37.9677C68.537 39.0802 68.9 40.6044 68.416 43.0966L66.0346 55.0711H60.2536ZM91.8841 46.2888C91.6342 47.5749 91.2115 48.7503 90.6168 49.8149C90.0212 50.8811 89.2434 51.8561 88.2826 52.7392C87.137 53.8108 85.8642 54.2532 84.4642 54.7089C83.0641 55.1653 81.2798 55.0711 79.1122 55.0711H74.1993L72.8386 62.9278H67.1023L72.2202 36.2149H83.2519C86.5706 36.2149 88.9912 37.1695 90.5123 38.9113C92.0326 40.6531 92.4906 43.1681 91.8841 46.2888ZM81.0779 40.1432H77.1488L75.0062 51.1427H78.4962C80.8077 51.1427 82.5314 50.9148 83.6628 50.0427C84.7957 49.1722 85.5586 47.8209 85.9554 45.7836C86.3357 43.8265 86.1628 42.2999 85.4368 41.4954C84.7101 40.6909 83.2574 40.1432 81.0779 40.1432ZM36.3063 40.1432H32.3763L30.2338 51.1427H33.723C36.0352 51.1427 37.7582 50.9148 38.8903 50.0427C40.0225 49.1722 40.7862 47.8209 41.1822 45.7836C41.5624 43.8265 41.3896 42.2999 40.6636 41.4954C39.9376 40.6909 38.4857 40.1432 36.3063 40.1432Z" fill="white"/>
</g>
<defs>
<filter id="filter0_dd_1326_227" x="0" y="-8" width="112" height="112" filterUnits="userSpaceOnUse" color-interpolation-filters="sRGB">
<feFlood flood-opacity="0" result="BackgroundImageFix"/>
<feColorMatrix in="SourceAlpha" type="matrix" values="0 0 0 0 0 0 0 0 0 0 0 0 0 0 0 0 0 0 127 0" result="hardAlpha"/>
<feOffset/>
<feGaussianBlur stdDeviation="4"/>
<feComposite in2="hardAlpha" operator="out"/>
<feColorMatrix type="matrix" values="0 0 0 0 0.715625 0 0 0 0 0.728516 0 0 0 0 0.75 0 0 0 0.04 0"/>
<feBlend mode="normal" in2="BackgroundImageFix" result="effect1_dropShadow_1326_227"/>
<feColorMatrix in="SourceAlpha" type="matrix" values="0 0 0 0 0 0 0 0 0 0 0 0 0 0 0 0 0 0 127 0" result="hardAlpha"/>
<feOffset dy="2"/>
<feGaussianBlur stdDeviation="1.5"/>
<feComposite in2="hardAlpha" operator="out"/>
<feColorMatrix type="matrix" values="0 0 0 0 0 0 0 0 0 0 0 0 0 0 0 0 0 0 0.02 0"/>
<feBlend mode="normal" in2="effect1_dropShadow_1326_227" result="effect2_dropShadow_1326_227"/>
<feBlend mode="normal" in="SourceGraphic" in2="effect2_dropShadow_1326_227" result="shape"/>
</filter>
<linearGradient id="paint0_linear_1326_227" x1="17.5" y1="4" x2="86" y2="100" gradientUnits="userSpaceOnUse">
<stop stop-color="#6181B6"/>
<stop offset="1" stop-color="#5979AE"/>
</linearGradient>
</defs>
</svg>
