<svg width="96" height="96" viewBox="0 0 96 96" fill="none" xmlns="http://www.w3.org/2000/svg">
<path d="M96 48C96 74.5104 74.5104 96 48 96C21.4906 96 0 74.5104 0 48C0 21.4901 21.4906 0 48 0C74.5104 0 96 21.4901 96 48Z" fill="url(#paint0_linear_6565_111)"/>
<path d="M96 48C96 74.5104 74.5104 96 48 96C21.4906 96 0 74.5104 0 48C0 21.4901 21.4906 0 48 0C74.5104 0 96 21.4901 96 48Z" fill="url(#paint1_linear_6565_111)"/>
<path d="M47.7656 16.582L47.332 18.0186V59.6998L47.7656 60.1217L67.6018 48.6852L47.7656 16.582Z" fill="#343434"/>
<path d="M47.7624 16.582L27.9258 48.6852L47.7624 60.1217V39.8908V16.582Z" fill="#8C8C8C"/>
<path d="M47.7639 63.7846L47.5195 64.0753V78.9227L47.7639 79.6186L67.6122 52.354L47.7639 63.7846Z" fill="#3C3C3B"/>
<path d="M47.7624 79.6186V63.7846L27.9258 52.354L47.7624 79.6186Z" fill="#8C8C8C"/>
<path d="M47.7617 60.1206L67.5979 48.684L47.7617 39.8896V60.1206Z" fill="#141414"/>
<path d="M27.9258 48.6842L47.7624 60.1207V39.8898L27.9258 48.6842Z" fill="#393939"/>
<defs>
<linearGradient id="paint0_linear_6565_111" x1="147.491" y1="-39.2727" x2="-37.5273" y2="145.745" gradientUnits="userSpaceOnUse">
<stop stop-color="#E9E9E7"/>
<stop offset="0.271524" stop-color="#EFEEEC"/>
<stop offset="0.608677" stop-color="#EEEEEC"/>
<stop offset="1" stop-color="#D5D4D0"/>
</linearGradient>
<linearGradient id="paint1_linear_6565_111" x1="-1.82758" y1="178.969" x2="111.061" y2="154.577" gradientUnits="userSpaceOnUse">
<stop stop-color="#EEEDF1"/>
<stop offset="1" stop-color="white"/>
</linearGradient>
</defs>
</svg>
