<svg width="113" height="112" viewBox="0 0 113 112" fill="none" xmlns="http://www.w3.org/2000/svg">
<g filter="url(#filter0_dd_955_4358)">
<rect x="8.28577" y="8" width="96" height="96" rx="48" fill="url(#paint0_linear_955_4358)"/>
<path d="M69.9843 63.5816C69.9843 56.4318 65.6943 53.9804 57.1143 52.9591C50.9858 52.1418 49.76 50.5077 49.76 47.6474C49.76 44.7871 51.8031 42.949 55.8886 42.949C59.5657 42.949 61.6088 44.1747 62.63 47.239C62.8345 47.8518 63.4473 48.2602 64.0602 48.2602H67.3284C68.1457 48.2602 68.7586 47.6474 68.7586 46.8306V46.6261C67.9413 42.1317 64.2641 38.659 59.5657 38.2506V33.3477C59.5657 32.5304 58.9529 31.9176 57.9316 31.7131H54.8673C54.05 31.7131 53.4372 32.326 53.2327 33.3477V38.0461C47.1042 38.8634 43.2231 42.949 43.2231 48.0563C43.2231 54.7977 47.3086 57.4531 55.8886 58.4748C61.6088 59.4961 63.4473 60.7218 63.4473 63.9905C63.4473 67.2593 60.587 69.5062 56.7059 69.5062C51.3942 69.5062 49.5556 67.2588 48.9427 64.1945C48.7388 63.3777 48.1259 62.9688 47.5131 62.9688H44.0399C43.2231 62.9688 42.6102 63.5816 42.6102 64.3989V64.6034C43.427 69.7102 46.6958 73.3873 53.4372 74.4091V79.3119C53.4372 80.1287 54.05 80.7416 55.0713 80.946H58.1356C58.9529 80.946 59.5657 80.3332 59.7702 79.3119V74.4091C65.8987 73.3873 69.9843 69.0973 69.9843 63.5816Z" fill="white"/>
<path fill-rule="evenodd" clip-rule="evenodd" d="M27.9008 45.809C21.9762 61.5393 30.1478 79.3121 46.082 85.0318C46.6949 85.4407 47.3078 86.2575 47.3078 86.8703V89.7307C47.3078 90.1391 47.3078 90.3435 47.1033 90.5475C46.8994 91.3648 46.082 91.7732 45.2647 91.3648C33.8249 87.6876 25.0405 78.9032 21.3634 67.4634C15.2348 48.0565 25.8578 27.4233 45.2647 21.2948C45.4692 21.0908 45.8776 21.0908 46.082 21.0908C46.8994 21.2948 47.3078 21.9076 47.3078 22.7249V25.5848C47.3078 26.6065 46.8994 27.2194 46.082 27.6278C37.7065 30.6921 30.9651 37.229 27.9008 45.809ZM65.8926 22.1118C66.0965 21.2945 66.9138 20.8861 67.7311 21.2945C78.9665 24.9716 87.9554 33.756 91.6325 45.4003C97.761 64.8072 87.1381 85.4404 67.7311 91.5689C67.5267 91.7729 67.1183 91.7729 66.9138 91.7729C66.0965 91.5689 65.6881 90.9561 65.6881 90.1388V87.2789C65.6881 86.2572 66.0965 85.6443 66.9138 85.2359C75.2894 82.1716 82.0308 75.6347 85.095 67.0547C91.0196 51.3244 82.8481 33.5516 66.9138 27.8319C66.301 27.423 65.6881 26.6062 65.6881 25.7889V22.9291C65.6881 22.5202 65.6881 22.3162 65.8926 22.1118Z" fill="white"/>
</g>
<defs>
<filter id="filter0_dd_955_4358" x="0.285767" y="0" width="112" height="112" filterUnits="userSpaceOnUse" color-interpolation-filters="sRGB">
<feFlood flood-opacity="0" result="BackgroundImageFix"/>
<feColorMatrix in="SourceAlpha" type="matrix" values="0 0 0 0 0 0 0 0 0 0 0 0 0 0 0 0 0 0 127 0" result="hardAlpha"/>
<feOffset/>
<feGaussianBlur stdDeviation="4"/>
<feComposite in2="hardAlpha" operator="out"/>
<feColorMatrix type="matrix" values="0 0 0 0 0.715625 0 0 0 0 0.728516 0 0 0 0 0.75 0 0 0 0.04 0"/>
<feBlend mode="normal" in2="BackgroundImageFix" result="effect1_dropShadow_955_4358"/>
<feColorMatrix in="SourceAlpha" type="matrix" values="0 0 0 0 0 0 0 0 0 0 0 0 0 0 0 0 0 0 127 0" result="hardAlpha"/>
<feOffset dy="2"/>
<feGaussianBlur stdDeviation="1.5"/>
<feComposite in2="hardAlpha" operator="out"/>
<feColorMatrix type="matrix" values="0 0 0 0 0 0 0 0 0 0 0 0 0 0 0 0 0 0 0.02 0"/>
<feBlend mode="normal" in2="effect1_dropShadow_955_4358" result="effect2_dropShadow_955_4358"/>
<feBlend mode="normal" in="SourceGraphic" in2="effect2_dropShadow_955_4358" result="shape"/>
</filter>
<linearGradient id="paint0_linear_955_4358" x1="61.5221" y1="47.2727" x2="-30.1142" y2="183.418" gradientUnits="userSpaceOnUse">
<stop stop-color="#2775CA"/>
<stop offset="1" stop-color="#00BBF9"/>
</linearGradient>
</defs>
</svg>
