<svg width="24" height="24" viewBox="0 0 24 24" fill="none" xmlns="http://www.w3.org/2000/svg">
<g clip-path="url(#clip0_6563_91)">
<path d="M23.9598 12.0278C23.9598 18.6224 18.614 23.9681 12.0195 23.9681C5.42483 23.9681 0.0791626 18.6224 0.0791626 12.0278C0.0791626 5.43332 5.42483 0.0875244 12.0195 0.0875244C18.614 0.0875244 23.9598 5.43332 23.9598 12.0278Z" fill="url(#paint0_linear_6563_91)"/>
<path d="M19.4981 8.91855C18.8235 8.44677 18.1022 7.9438 17.3965 7.44472C17.3809 7.43302 17.3653 7.42133 17.3458 7.40963C17.2678 7.35114 17.1782 7.28876 17.069 7.25367L17.0612 7.24977C15.1741 6.79358 13.2557 6.3257 11.3998 5.87341C9.71542 5.46401 8.03494 5.05462 6.35057 4.64522C6.30768 4.63352 6.26479 4.62183 6.218 4.61013C6.06594 4.56724 5.89048 4.52045 5.70333 4.54384C5.64874 4.55164 5.60195 4.57114 5.55906 4.59843L5.51228 4.63742C5.43819 4.7076 5.3992 4.79728 5.37971 4.84797L5.36801 4.87916V5.05852L5.37581 5.08581C6.44024 8.06856 7.53197 11.0942 8.58471 14.0224C9.3957 16.276 10.2379 18.6115 11.0606 20.9042C11.1113 21.0601 11.2555 21.1615 11.4349 21.1771H11.4739C11.6415 21.1771 11.7897 21.0952 11.8638 20.9626L14.9518 16.4593C15.7043 15.3636 16.4568 14.2641 17.2094 13.1685C17.5174 12.7201 17.8254 12.2678 18.1334 11.8194C18.6403 11.0786 19.1628 10.3144 19.6813 9.56969L19.7086 9.5307V9.48391C19.7203 9.34744 19.7242 9.06671 19.4981 8.91855ZM15.8798 10.56C15.1546 10.9382 14.4137 11.3281 13.669 11.7142C14.1018 11.2502 14.5385 10.7823 14.9713 10.3183C15.5133 9.73345 16.0786 9.1291 16.6323 8.53645L16.644 8.52475C16.6908 8.46237 16.7493 8.40388 16.8116 8.3415C16.8545 8.29861 16.9013 8.25572 16.9442 8.20503C17.2327 8.40388 17.5252 8.60663 17.8059 8.80548C18.0087 8.94974 18.2153 9.09401 18.4258 9.23827C17.5681 9.67496 16.7103 10.1234 15.8798 10.56ZM14.016 10.3729C13.4585 10.9772 12.8814 11.5972 12.3083 12.2093C11.1971 10.8603 10.0624 9.49171 8.96291 8.16994C8.46384 7.56949 7.96086 6.96514 7.46179 6.36469L7.45789 6.36079C7.34482 6.23212 7.23564 6.09176 7.12647 5.95919C7.05629 5.86951 6.98221 5.78373 6.90813 5.69406C7.36041 5.81103 7.8166 5.9202 8.26499 6.02547C8.65879 6.11905 9.06819 6.21653 9.46979 6.3179C11.7312 6.86766 13.9966 7.41743 16.258 7.96719C15.5055 8.77039 14.7491 9.58528 14.016 10.3729ZM12.0548 17.9721C12.0977 17.5627 12.1445 17.1416 12.1835 16.7283C12.2186 16.3969 12.2537 16.0577 12.2888 15.734C12.3434 15.2155 12.4019 14.6774 12.4486 14.151L12.4603 14.0575C12.4993 13.7222 12.5383 13.3751 12.5617 13.0281C12.6046 13.0047 12.6514 12.9813 12.7021 12.9618C12.7606 12.9345 12.819 12.9112 12.8775 12.8761C13.7782 12.4043 14.6789 11.9325 15.5835 11.4646C16.4841 10.9967 17.4082 10.5133 18.3245 10.0337C17.4901 11.2424 16.6518 12.4628 15.8408 13.652C15.1429 14.6696 14.4254 15.7185 13.7119 16.7517C13.4312 17.165 13.1388 17.5861 12.8619 17.9916C12.55 18.4439 12.2303 18.9079 11.9184 19.3718C11.9574 18.904 12.0042 18.4322 12.0548 17.9721ZM6.6196 6.61423C6.56891 6.47386 6.51432 6.3296 6.46754 6.19313C7.52027 7.46422 8.58081 8.74309 9.61405 9.98299C10.1482 10.6263 10.6824 11.2658 11.2165 11.913C11.3218 12.0339 11.4271 12.1625 11.5285 12.2873C11.661 12.4472 11.7936 12.6148 11.9379 12.7747C11.8911 13.1763 11.8521 13.5818 11.8092 13.9717C11.7819 14.2446 11.7546 14.5176 11.7234 14.7944V14.7983C11.7117 14.9737 11.6883 15.1492 11.6688 15.3208C11.6415 15.5586 11.5792 16.0967 11.5792 16.0967L11.5753 16.124C11.5051 16.9116 11.4193 17.707 11.3374 18.479C11.3023 18.7987 11.2711 19.1262 11.236 19.4537C11.2165 19.3952 11.1932 19.3367 11.1737 19.2822C11.1152 19.1262 11.0567 18.9624 11.0021 18.8026L10.5849 17.6446C9.26314 13.9678 7.94137 10.2949 6.6196 6.61423Z" fill="white"/>
</g>
<defs>
<linearGradient id="paint0_linear_6563_91" x1="15.7101" y1="3.56107" x2="0.0791634" y2="35.6913" gradientUnits="userSpaceOnUse">
<stop stop-color="#FC070C"/>
<stop offset="1" stop-color="#F45C43"/>
</linearGradient>
<clipPath id="clip0_6563_91">
<rect width="24" height="24" fill="white"/>
</clipPath>
</defs>
</svg>
