<svg width="113" height="112" viewBox="0 0 113 112" fill="none" xmlns="http://www.w3.org/2000/svg">
<g filter="url(#filter0_dd_955_4343)">
<rect x="8.85718" y="8" width="96" height="96" rx="48" fill="url(#paint0_linear_955_4343)"/>
<path fill-rule="evenodd" clip-rule="evenodd" d="M83.8848 47.4775C82.7421 46.4224 81.4173 45.1361 80.0368 43.7957C78.0977 41.913 76.0488 39.9236 74.2404 38.3186L74.0573 38.1904C73.7525 37.9456 73.4089 37.7537 73.0406 37.6225L71.6447 37.3621C62.0146 35.5652 30.8008 29.741 30.1587 29.8191C29.9688 29.8457 29.7872 29.9146 29.6275 30.0206L29.4535 30.158C29.2392 30.3756 29.0764 30.6385 28.9772 30.9274L28.9314 31.0464V31.6967V31.7975C31.0506 37.6984 36.5556 50.8766 41.6386 63.0446L41.6387 63.0448L41.6387 63.0449L41.6388 63.0451C45.9362 73.3324 49.9319 82.8975 51.3249 86.7325L51.3254 86.7341C51.5087 87.3023 51.8567 88.3811 52.5064 88.436H52.6529C53.001 88.436 54.4847 86.476 54.4847 86.476C54.4847 86.476 81.0089 54.31 83.6924 50.8846C84.0398 50.4626 84.3465 50.0088 84.6083 49.5291C84.7443 48.7656 84.4696 47.9868 83.8848 47.4775ZM61.2908 51.2233L72.6112 41.8354L79.2514 47.9536L61.2908 51.2233ZM37.4041 34.6367L56.8942 50.6098L68.9381 40.4526L37.4041 34.6367ZM58.6524 54.7954L78.6005 51.5806L55.7948 79.0573L58.6524 54.7954ZM55.2624 53.6319L34.7556 36.23L52.2949 79.0753L55.2624 53.6319Z" fill="white"/>
</g>
<defs>
<filter id="filter0_dd_955_4343" x="0.857178" y="0" width="112" height="112" filterUnits="userSpaceOnUse" color-interpolation-filters="sRGB">
<feFlood flood-opacity="0" result="BackgroundImageFix"/>
<feColorMatrix in="SourceAlpha" type="matrix" values="0 0 0 0 0 0 0 0 0 0 0 0 0 0 0 0 0 0 127 0" result="hardAlpha"/>
<feOffset/>
<feGaussianBlur stdDeviation="4"/>
<feComposite in2="hardAlpha" operator="out"/>
<feColorMatrix type="matrix" values="0 0 0 0 0.715625 0 0 0 0 0.728516 0 0 0 0 0.75 0 0 0 0.04 0"/>
<feBlend mode="normal" in2="BackgroundImageFix" result="effect1_dropShadow_955_4343"/>
<feColorMatrix in="SourceAlpha" type="matrix" values="0 0 0 0 0 0 0 0 0 0 0 0 0 0 0 0 0 0 127 0" result="hardAlpha"/>
<feOffset dy="2"/>
<feGaussianBlur stdDeviation="1.5"/>
<feComposite in2="hardAlpha" operator="out"/>
<feColorMatrix type="matrix" values="0 0 0 0 0 0 0 0 0 0 0 0 0 0 0 0 0 0 0.02 0"/>
<feBlend mode="normal" in2="effect1_dropShadow_955_4343" result="effect2_dropShadow_955_4343"/>
<feBlend mode="normal" in="SourceGraphic" in2="effect2_dropShadow_955_4343" result="shape"/>
</filter>
<linearGradient id="paint0_linear_955_4343" x1="71.6935" y1="21.9636" x2="8.85718" y2="151.127" gradientUnits="userSpaceOnUse">
<stop stop-color="#FC070C"/>
<stop offset="1" stop-color="#F45C43"/>
</linearGradient>
</defs>
</svg>
